<svg width="117" height="45" viewBox="0 0 117 45" fill="none" xmlns="http://www.w3.org/2000/svg">
<path d="M24.1078 13.3711L14.9672 33.1465H12.9457L3.80508 13.3711H8.58047L13.9418 26.3496L19.3324 13.3711H24.1078ZM34.2773 29.3379V33H23.584V29.3379H26.8945V17.0332H23.584V13.3711H34.2773V17.0332H30.9668V29.3379H34.2773ZM44.359 13.3711C45.277 13.3711 46.1754 13.498 47.0543 13.752C47.9332 14.0059 48.7242 14.3965 49.4273 14.9238C50.15 15.4512 50.7164 16.1152 51.1266 16.916C51.5562 17.6973 51.7711 18.6348 51.7711 19.7285C51.7711 20.8809 51.4781 21.877 50.8922 22.7168C50.3258 23.5371 49.5738 24.1816 48.6363 24.6504C47.6988 25.0996 46.6832 25.3633 45.5895 25.4414L52.65 33H47.2887L40.4625 24.9727V33H36.3902V13.3711H44.359ZM40.4625 17.1797V22.1309C40.9312 22.2871 41.4488 22.4141 42.0152 22.5117C42.6012 22.5898 43.1871 22.6289 43.773 22.6289C44.9449 22.6289 45.8727 22.3945 46.5562 21.9258C47.2594 21.4375 47.6109 20.7539 47.6109 19.875C47.6109 18.918 47.2398 18.2344 46.4977 17.8242C45.775 17.3945 44.8863 17.1797 43.8316 17.1797H40.4625ZM65.1047 21.3398V24.6504H56.4328V29.3965H66.2473V33H52.3605V13.3711H66.2473V16.8867H56.4328V21.3398H65.1047ZM85.0887 13.3711V33.1465H83.6238L71.993 21.1641V33H67.9207V13.2246H69.3855L81.0164 25.3828V13.3711H85.0887ZM88.4613 28.8398C89.1059 28.8398 89.6527 29.0742 90.102 29.543C90.5707 29.9922 90.8051 30.5391 90.8051 31.1836C90.8051 31.8281 90.5707 32.3848 90.102 32.8535C89.6527 33.3027 89.1059 33.5273 88.4613 33.5273C87.8168 33.5273 87.2602 33.3027 86.7914 32.8535C86.3422 32.3848 86.1176 31.8281 86.1176 31.1836C86.1176 30.5391 86.3422 29.9922 86.7914 29.543C87.2602 29.0742 87.8168 28.8398 88.4613 28.8398ZM116.707 13.3711L110.086 33H107.273L102.908 20.373L98.543 33H95.7305L89.1973 13.3711H93.8262L97.459 25.7637L101.59 13.3711H104.314L108.387 25.7637L112.078 13.3711H116.707Z" fill="url(#paint0_linear)"/>
<defs>
<linearGradient id="paint0_linear" x1="59" y1="19" x2="59" y2="49" gradientUnits="userSpaceOnUse">
<stop stop-color="white"/>
<stop offset="1" stop-opacity="0"/>
</linearGradient>
</defs>
</svg>
